<mxfile host="drawio-plugin" modified="2023-11-03T12:15:47.547Z" agent="5.0 (Macintosh; Intel Mac OS X 10_15_7) AppleWebKit/537.36 (KHTML, like Gecko) Chrome/104.0.5112.102 Safari/537.36" etag="wtfZw3-IXpdYSVVRctRp" version="20.5.3" type="embed"><diagram id="D7mgj5rdK5UZ7q-sVIMb" name="Page-1"><mxGraphModel dx="853" dy="669" grid="1" gridSize="10" guides="1" tooltips="1" connect="1" arrows="1" fold="1" page="1" pageScale="1" pageWidth="827" pageHeight="1169" math="0" shadow="0"><root><mxCell id="0"/><mxCell id="1" parent="0"/><mxCell id="4" value="" style="edgeStyle=orthogonalEdgeStyle;html=1;curved=1;endArrow=none;endFill=0;startArrow=classic;startFill=1;entryX=1;entryY=0.5;entryDx=0;entryDy=0;exitX=0;exitY=0.5;exitDx=0;exitDy=0;" parent="1" source="2" target="3" edge="1"><mxGeometry relative="1" as="geometry"><mxPoint x="199" y="170" as="sourcePoint"/></mxGeometry></mxCell><UserObject label="meldekort-api" link="https://github.com/navikt/meldekort-api" id="2"><mxCell style="rounded=1;whiteSpace=wrap;html=1;" parent="1" vertex="1"><mxGeometry x="219" y="120" width="120" height="60" as="geometry"/></mxCell></UserObject><UserObject label="meldekort" link="https://github.com/navikt/meldekort" id="3"><mxCell style="whiteSpace=wrap;html=1;rounded=1;" parent="1" vertex="1"><mxGeometry x="19" y="120" width="120" height="60" as="geometry"/></mxCell></UserObject><UserObject label="meldekortservice" link="https://github.com/navikt/meldekortservice" id="5"><mxCell style="whiteSpace=wrap;html=1;rounded=1;" parent="1" vertex="1"><mxGeometry x="509" y="120" width="120" height="60" as="geometry"/></mxCell></UserObject><mxCell id="18" value="" style="shape=cylinder3;whiteSpace=wrap;html=1;boundedLbl=1;backgroundOutline=1;size=15;" parent="1" vertex="1"><mxGeometry x="323" y="90" width="20" height="50" as="geometry"/></mxCell><mxCell id="20" value="" style="shape=cylinder3;whiteSpace=wrap;html=1;boundedLbl=1;backgroundOutline=1;size=15;" parent="1" vertex="1"><mxGeometry x="619" y="90" width="20" height="50" as="geometry"/></mxCell><UserObject label="meldekortkontroll-api" link="https://github.com/navikt/meldekortkontroll-api" id="33"><mxCell style="whiteSpace=wrap;html=1;rounded=1;" parent="1" vertex="1"><mxGeometry x="509" y="270" width="120" height="60" as="geometry"/></mxCell></UserObject><mxCell id="34" value="" style="shape=cylinder3;whiteSpace=wrap;html=1;boundedLbl=1;backgroundOutline=1;size=15;" parent="1" vertex="1"><mxGeometry x="619" y="240" width="20" height="50" as="geometry"/></mxCell><mxCell id="37" value="" style="endArrow=none;dashed=1;html=1;dashPattern=1 3;strokeWidth=2;rounded=0;" parent="1" edge="1"><mxGeometry width="50" height="50" relative="1" as="geometry"><mxPoint x="479" y="560" as="sourcePoint"/><mxPoint x="479" y="20" as="targetPoint"/></mxGeometry></mxCell><mxCell id="38" value="FSS" style="text;html=1;strokeColor=none;fillColor=none;align=center;verticalAlign=middle;whiteSpace=wrap;rounded=0;" parent="1" vertex="1"><mxGeometry x="479" y="20" width="60" height="30" as="geometry"/></mxCell><mxCell id="39" value="GCP" style="text;html=1;strokeColor=none;fillColor=none;align=center;verticalAlign=middle;whiteSpace=wrap;rounded=0;" parent="1" vertex="1"><mxGeometry x="419" y="20" width="60" height="30" as="geometry"/></mxCell><mxCell id="40" value="PostgreSQL" style="text;html=1;strokeColor=none;fillColor=none;align=center;verticalAlign=middle;whiteSpace=wrap;rounded=0;" parent="1" vertex="1"><mxGeometry x="303" y="60" width="60" height="30" as="geometry"/></mxCell><mxCell id="41" value="Oracle DB" style="text;html=1;strokeColor=none;fillColor=none;align=center;verticalAlign=middle;whiteSpace=wrap;rounded=0;" parent="1" vertex="1"><mxGeometry x="599" y="60" width="60" height="30" as="geometry"/></mxCell><mxCell id="42" value="Oracle DB" style="text;html=1;strokeColor=none;fillColor=none;align=center;verticalAlign=middle;whiteSpace=wrap;rounded=0;" parent="1" vertex="1"><mxGeometry x="599" y="210" width="60" height="30" as="geometry"/></mxCell><mxCell id="45" value="" style="curved=1;endArrow=classic;html=1;rounded=0;exitX=1;exitY=0.5;exitDx=0;exitDy=0;entryX=0;entryY=0.5;entryDx=0;entryDy=0;" parent="1" source="2" target="5" edge="1"><mxGeometry width="50" height="50" relative="1" as="geometry"><mxPoint x="819" y="520" as="sourcePoint"/><mxPoint x="869" y="470" as="targetPoint"/><Array as="points"><mxPoint x="469" y="150"/></Array></mxGeometry></mxCell><mxCell id="46" value="" style="curved=1;endArrow=classic;html=1;rounded=0;exitX=1;exitY=0.5;exitDx=0;exitDy=0;entryX=0;entryY=0.5;entryDx=0;entryDy=0;" parent="1" source="2" target="33" edge="1"><mxGeometry width="50" height="50" relative="1" as="geometry"><mxPoint x="439" y="160" as="sourcePoint"/><mxPoint x="519" y="160" as="targetPoint"/><Array as="points"><mxPoint x="459" y="160"/><mxPoint x="449" y="260"/><mxPoint x="479" y="300"/></Array></mxGeometry></mxCell><mxCell id="47" value="Arena" style="whiteSpace=wrap;html=1;rounded=1;" parent="1" vertex="1"><mxGeometry x="679" y="480" width="120" height="60" as="geometry"/></mxCell><mxCell id="48" value="" style="curved=1;endArrow=classic;html=1;rounded=0;entryX=0.25;entryY=0;entryDx=0;entryDy=0;startArrow=none;exitX=1;exitY=0.5;exitDx=0;exitDy=0;" parent="1" source="33" target="47" edge="1"><mxGeometry width="50" height="50" relative="1" as="geometry"><mxPoint x="649" y="360" as="sourcePoint"/><mxPoint x="489" y="370" as="targetPoint"/><Array as="points"><mxPoint x="659" y="300"/><mxPoint x="709" y="360"/></Array></mxGeometry></mxCell><mxCell id="49" value="Henter meldekort" style="text;html=1;strokeColor=none;fillColor=none;align=center;verticalAlign=middle;whiteSpace=wrap;rounded=0;" parent="1" vertex="1"><mxGeometry x="649" y="415" width="60" height="30" as="geometry"/></mxCell><mxCell id="50" value="Kafka" style="whiteSpace=wrap;html=1;rounded=1;" parent="1" vertex="1"><mxGeometry x="509" y="400" width="120" height="60" as="geometry"/></mxCell><mxCell id="51" value="" style="curved=1;endArrow=classic;html=1;rounded=0;exitX=0.5;exitY=1;exitDx=0;exitDy=0;entryX=0.5;entryY=0;entryDx=0;entryDy=0;" parent="1" source="33" target="50" edge="1"><mxGeometry width="50" height="50" relative="1" as="geometry"><mxPoint x="819" y="520" as="sourcePoint"/><mxPoint x="869" y="470" as="targetPoint"/><Array as="points"><mxPoint x="569" y="360"/></Array></mxGeometry></mxCell><mxCell id="52" value="Sender hendelser til Kafka" style="text;html=1;strokeColor=none;fillColor=none;align=center;verticalAlign=middle;whiteSpace=wrap;rounded=0;" parent="1" vertex="1"><mxGeometry x="569" y="350" width="60" height="30" as="geometry"/></mxCell><mxCell id="54" value="" style="curved=1;endArrow=classic;html=1;rounded=0;exitX=1;exitY=0.5;exitDx=0;exitDy=0;entryX=0.683;entryY=0.017;entryDx=0;entryDy=0;entryPerimeter=0;" parent="1" source="5" target="47" edge="1"><mxGeometry width="50" height="50" relative="1" as="geometry"><mxPoint x="819" y="330" as="sourcePoint"/><mxPoint x="869" y="280" as="targetPoint"/><Array as="points"><mxPoint x="689" y="150"/><mxPoint x="769" y="280"/></Array></mxGeometry></mxCell><mxCell id="55" value="Henter meldekort, meldekortdetaljer, historiske meldekort, kopierer meldekort for korrigering" style="text;html=1;strokeColor=none;fillColor=none;align=center;verticalAlign=middle;whiteSpace=wrap;rounded=0;" parent="1" vertex="1"><mxGeometry x="729" y="150" width="80" height="30" as="geometry"/></mxCell><mxCell id="56" value="" style="curved=1;endArrow=classic;html=1;rounded=0;entryX=0.5;entryY=1;entryDx=0;entryDy=0;exitX=0.5;exitY=0;exitDx=0;exitDy=0;" parent="1" source="58" target="2" edge="1"><mxGeometry width="50" height="50" relative="1" as="geometry"><mxPoint x="239" y="200" as="sourcePoint"/><mxPoint x="239" y="190" as="targetPoint"/><Array as="points"><mxPoint x="279" y="200"/></Array></mxGeometry></mxCell><UserObject label="meldekort-mikrofrontend" link="https://github.com/navikt/meldekort-mikrofrontend" id="57"><mxCell style="whiteSpace=wrap;html=1;rounded=1;" parent="1" vertex="1"><mxGeometry x="19" y="235" width="120" height="60" as="geometry"/></mxCell></UserObject><mxCell id="58" value="tms-min-side-proxy" style="whiteSpace=wrap;html=1;rounded=1;" parent="1" vertex="1"><mxGeometry x="219" y="235" width="120" height="60" as="geometry"/></mxCell><mxCell id="59" value="" style="edgeStyle=orthogonalEdgeStyle;html=1;curved=1;endArrow=none;endFill=0;startArrow=classic;startFill=1;entryX=1;entryY=0.5;entryDx=0;entryDy=0;exitX=0;exitY=0.5;exitDx=0;exitDy=0;" parent="1" source="58" target="57" edge="1"><mxGeometry relative="1" as="geometry"><mxPoint x="229" y="160" as="sourcePoint"/><mxPoint x="149" y="160" as="targetPoint"/></mxGeometry></mxCell><mxCell id="60" value="Kontrollerer meldekort" style="text;html=1;strokeColor=none;fillColor=none;align=center;verticalAlign=middle;whiteSpace=wrap;rounded=0;" parent="1" vertex="1"><mxGeometry x="379" y="180" width="60" height="30" as="geometry"/></mxCell><mxCell id="63" value="Joark" style="whiteSpace=wrap;html=1;rounded=1;" parent="1" vertex="1"><mxGeometry x="309" y="400" width="120" height="60" as="geometry"/></mxCell><mxCell id="64" value="" style="curved=1;endArrow=classic;html=1;rounded=0;exitX=1;exitY=0.5;exitDx=0;exitDy=0;entryX=0.5;entryY=0;entryDx=0;entryDy=0;" parent="1" source="2" target="63" edge="1"><mxGeometry width="50" height="50" relative="1" as="geometry"><mxPoint x="349" y="360" as="sourcePoint"/><mxPoint x="329" y="370" as="targetPoint"/><Array as="points"><mxPoint x="369" y="160"/><mxPoint x="369" y="310"/></Array></mxGeometry></mxCell><mxCell id="65" value="Journalfører innsendte meldekort" style="text;html=1;strokeColor=none;fillColor=none;align=center;verticalAlign=middle;whiteSpace=wrap;rounded=0;" parent="1" vertex="1"><mxGeometry x="379" y="340" width="60" height="30" as="geometry"/></mxCell></root></mxGraphModel></diagram></mxfile>